<?xml version="1.0" encoding="UTF-8"?>
<svg id="_图层_1" data-name="图层_1" xmlns="http://www.w3.org/2000/svg" viewBox="0 0 207.41 63.33">
  <defs>
    <style>
      .cls-1 {
        font-family: 'FZYOUH_509R--GB1-4', FZYouHei;
        font-size: 17px;
        letter-spacing: .22em;
      }

      .cls-1, .cls-2 {
        fill: #e0e0e0;
      }

      .cls-2 {
        font-family: 'FZYOUH_512B--GB1-4', FZYouHei;
        font-size: 6px;
      }

      .cls-3 {
        letter-spacing: 0em;
      }

      .cls-4 {
        letter-spacing: -.02em;
      }

      .cls-5 {
        fill: none;
        stroke: #e0e0e0;
        stroke-miterlimit: 10;
      }

      .cls-6 {
        letter-spacing: .03em;
      }

      .cls-7 {
        letter-spacing: .02em;
      }

      .cls-8 {
        letter-spacing: .02em;
      }

      .cls-9 {
        letter-spacing: .04em;
      }

      .cls-10 {
        letter-spacing: .04em;
      }

      .cls-11 {
        letter-spacing: .03em;
      }

      .cls-12 {
        letter-spacing: .03em;
      }

      .cls-13 {
        letter-spacing: .03em;
      }

      .cls-14 {
        letter-spacing: .01em;
      }
    </style>
  </defs>
  <g>
    <polyline class="cls-5" points=".5 41.54 22.46 53.8 63.07 33.13"/>
    <polyline class="cls-5" points="45.76 17.31 45.64 26.66 53.91 22.16 53.91 12.1"/>
    <polyline class="cls-5" points="27.49 21.98 31.78 19.65 45.64 26.66"/>
    <polyline class="cls-5" points=".5 17.4 36.48 37.26 54.28 28.41 63.07 33.13 63.07 50.32 52.82 56.54 52.82 46.67 22.45 62.76 .5 50.69 .5 41.54 7.82 37.52 22.45 44.84 27.94 41.18 .5 26.91 .5 17.4 32.33 .57 53.45 12.1 45.76 17.31 31.95 9.76 18.14 17.13 45.76 32.65"/>
  </g>
  <text class="cls-1" transform="translate(75.89 24.61)"><tspan x="0" y="0">上海图书馆</tspan><tspan x="0" y="20.4">开放数据竞赛</tspan></text>
  <text class="cls-2" transform="translate(75.89 56.32)"><tspan class="cls-7" x="0" y="0">SHA</tspan><tspan class="cls-12" x="10.96" y="0">NG</tspan><tspan class="cls-7" x="19.36" y="0">H</tspan><tspan class="cls-12" x="23.51" y="0" xml:space="preserve">AI   </tspan><tspan class="cls-9" x="33.7" y="0">LI</tspan><tspan class="cls-7" x="38.75" y="0">B</tspan><tspan class="cls-13" x="42.19" y="0">R</tspan><tspan class="cls-8" x="45.77" y="0">A</tspan><tspan class="cls-3" x="49.51" y="0">R</tspan><tspan class="cls-11" x="52.91" y="0" xml:space="preserve">Y  </tspan><tspan class="cls-6" x="59.54" y="0">O</tspan><tspan class="cls-11" x="64.03" y="0" xml:space="preserve">PEN  </tspan><tspan class="cls-14" x="77.93" y="0">D</tspan><tspan class="cls-4" x="82.11" y="0">AT</tspan><tspan class="cls-13" x="88.76" y="0" xml:space="preserve">A  </tspan><tspan class="cls-7" x="95.58" y="0">C</tspan><tspan class="cls-13" x="99.21" y="0">ONT</tspan><tspan class="cls-10" x="111.42" y="0">E</tspan><tspan class="cls-13" x="114.62" y="0">ST </tspan></text>
</svg>